<svg width="74" height="25" viewBox="0 0 74 25" fill="none" xmlns="http://www.w3.org/2000/svg">
<g clip-path="url(#clip0_321_294)">
<path d="M36.3263 11.6008C36.2848 11.715 36.2225 11.8291 36.1914 11.9433C34.7798 16.1156 33.3683 20.2776 31.9879 24.4603C31.853 24.8651 31.6246 24.9689 31.2821 24.9792C30.2131 25 29.1337 25 28.0647 25C27.0579 25 26.0615 24.9896 25.0548 25C24.6188 25 24.3801 24.8755 24.3075 24.3773C23.9338 21.8552 23.4979 19.3435 23.145 16.8214C23.062 16.2402 22.8856 15.6901 22.844 15.1089C22.8025 14.455 22.6572 13.8219 22.5534 13.168C22.4497 12.5245 22.3459 11.8706 22.2421 11.2272C22.1383 10.5837 22.0345 9.92978 21.9411 9.28629C21.5778 6.90951 21.1938 4.54312 20.8513 2.16634C20.6852 1.02466 20.706 1.02466 21.8581 1.01428C23.6847 0.962384 25.5322 0.962384 27.3796 0.931248C27.7948 0.920869 27.9609 1.06617 28.0024 1.48133C28.2619 4.02417 28.5525 6.55663 28.8119 9.08909C28.9988 10.9054 29.1648 12.7217 29.3516 14.538C29.362 14.6522 29.4139 14.756 29.5592 14.8909C29.6319 14.7352 29.7149 14.5795 29.7668 14.4239C31.2199 10.1789 32.6833 5.93389 34.1052 1.67853C34.292 1.12845 34.5515 0.941626 35.1327 0.952005C36.949 0.983142 38.7653 0.972763 40.5713 0.952005C41.0383 0.941626 41.2251 1.09731 41.2874 1.58512C41.4846 3.29764 41.7441 4.99979 41.9724 6.71231C42.2319 8.6428 42.481 10.5629 42.7301 12.4934C42.8235 13.2303 42.9273 13.9568 43.1037 14.7041C43.768 12.8047 44.453 10.9054 45.1069 9.00606C45.9476 6.58777 46.7883 4.16948 47.5874 1.7408C47.7743 1.19072 48.0234 0.952005 48.6357 0.962384C50.3794 1.01428 52.123 0.993521 53.8771 1.01428C54.0328 1.01428 54.1884 1.07655 54.4064 1.12845C53.8459 2.67491 53.3062 4.1591 52.7665 5.63291C50.4935 11.798 48.2206 17.9527 45.9476 24.1178C45.6466 24.9481 45.6466 24.9585 44.7955 24.9585C42.8962 24.9689 40.9968 24.9585 39.0871 24.9585C38.3606 24.9585 38.3398 24.9066 38.2464 24.2008C37.935 21.9278 37.6029 19.6652 37.2812 17.3922C37.0217 15.5344 36.7518 13.6766 36.4924 11.8188C36.482 11.7565 36.4612 11.6942 36.4508 11.6319C36.4093 11.6216 36.3678 11.6112 36.3263 11.6008Z" fill="#B6A89D"/>
<path d="M15.4023 21.4608C12.9944 21.4608 10.6488 21.4504 8.29278 21.4712C8.14747 21.4712 7.93989 21.6372 7.87762 21.7825C7.48322 22.6751 7.0992 23.5885 6.75669 24.5018C6.61139 24.8755 6.39343 24.9896 6.01979 24.9896C4.20347 24.9792 2.39754 24.9896 0.581224 24.9792C0.394403 24.9792 0.217961 24.9066 3.8147e-06 24.8651C0.62274 23.4432 1.24548 22.0316 1.86821 20.6305C2.68815 18.7934 3.50808 16.9563 4.31764 15.1296C6.33116 10.6148 8.34467 6.11033 10.3374 1.59549C10.5242 1.18034 10.7422 0.983136 11.2196 0.993515C13.5964 1.01427 15.9836 1.00389 18.3603 0.993515C18.6925 0.993515 18.8066 1.12844 18.8585 1.42943C19.201 3.41181 19.5539 5.39418 19.8964 7.36618C20.2078 9.15136 20.5192 10.9262 20.8202 12.7113C21.3183 15.6797 21.8062 18.6481 22.294 21.6165C22.4496 22.5506 22.6053 23.4847 22.7818 24.4084C22.8544 24.7924 22.7299 24.9585 22.3355 24.9585C20.405 24.9585 18.4641 24.9585 16.5337 24.9585C16.2119 24.9585 15.9939 24.8651 15.9317 24.4292C15.8071 23.4535 15.5892 22.4779 15.4023 21.4608ZM13.5341 8.50787C13.4926 8.49749 13.4615 8.49749 13.42 8.48711C12.4236 10.8535 11.4376 13.2199 10.4308 15.6174C11.8839 15.6174 13.2747 15.6174 14.6966 15.6174C14.3022 13.2199 13.9182 10.8639 13.5341 8.50787Z" fill="#B6A89D"/>
<path d="M59.4713 17.3092C59.3571 18.2018 59.243 19.0529 59.1392 19.9039C58.9524 21.3881 58.7655 22.8723 58.5891 24.3565C58.5476 24.7509 58.3608 24.917 57.9664 24.917C56.0774 24.9274 54.1988 24.9481 52.3098 24.9481C52.1749 24.9481 52.04 24.8962 51.8324 24.8443C51.9258 24.0867 52.0089 23.3394 52.1126 22.6025C52.4136 20.3606 52.7042 18.1291 53.0156 15.8873C53.2751 13.9776 53.5657 12.0679 53.8148 10.1581C54.0743 8.19651 54.313 6.22451 54.5725 4.25251C54.697 3.27689 54.8319 2.30127 55.0084 1.33603C55.0395 1.19072 55.2886 0.972766 55.4443 0.972766C57.7069 0.941629 59.9695 0.920871 62.2321 0.941629C63.7474 0.952008 65.2731 0.993524 66.7885 1.10769C68.8124 1.29451 70.6909 1.86535 72.0091 3.55712C72.9536 4.77146 73.2442 6.22451 73.213 7.69832C73.1611 9.90903 72.6007 11.9952 71.3241 13.8323C70.0578 15.6486 68.2519 16.6034 66.1138 16.9978C64.1315 17.3715 62.1179 17.2988 60.1148 17.3092C59.9176 17.3092 59.71 17.3092 59.4713 17.3092ZM60.3016 11.8707C60.9451 11.8707 61.4952 11.881 62.0453 11.8707C62.5954 11.8603 63.1558 11.8603 63.6955 11.798C65.1382 11.6216 65.8751 10.9365 66.1865 9.51463C66.2591 9.19288 66.2903 8.87114 66.3318 8.54939C66.4771 7.56339 66.1346 6.90952 65.159 6.75383C63.8097 6.54626 62.4293 6.53588 61.0385 6.44247C60.7791 8.31067 60.5507 10.0543 60.3016 11.8707Z" fill="#B6A89D"/>
</g>
<defs>
<clipPath id="clip0_321_294">
<rect width="73.213" height="24.0688" fill="white" transform="translate(0 0.931244)"/>
</clipPath>
</defs>
</svg>
