<?xml version="1.0" encoding="UTF-8"?> <svg xmlns="http://www.w3.org/2000/svg" xmlns:xlink="http://www.w3.org/1999/xlink" version="1.1" id="Layer_1" x="0px" y="0px" viewBox="0 0 778.7 253.1" style="enable-background:new 0 0 778.7 253.1;" xml:space="preserve"> <path d="M25.8,10.5c1.5,2.8,3.3,6.2,5.3,10.3c2,4.1,4.1,8.5,6.2,13.3c2.2,4.8,4.3,9.6,6.4,14.6c2.1,5,4.1,9.6,6,14 c1.9-4.4,3.8-9.1,6-14c2.1-5,4.2-9.8,6.4-14.6c2.2-4.8,4.2-9.2,6.2-13.3c2-4.1,3.7-7.5,5.3-10.3h17.9c0.8,5.8,1.6,12.3,2.3,19.5 c0.7,7.2,1.3,14.7,1.9,22.5c0.5,7.8,1.1,15.6,1.5,23.4c0.5,7.8,0.9,15.2,1.2,22.1H79.1c-0.3-8.5-0.6-17.8-1-27.8 c-0.4-10-1.1-20.1-1.9-30.3c-1.5,3.5-3.2,7.5-5.1,11.7c-1.9,4.3-3.7,8.6-5.5,12.9c-1.8,4.3-3.6,8.4-5.3,12.3 c-1.7,3.9-3.1,7.3-4.3,10H42.2c-1.2-2.8-2.6-6.1-4.3-10c-1.7-3.9-3.4-8-5.3-12.3c-1.8-4.3-3.7-8.6-5.5-12.9 c-1.9-4.3-3.5-8.2-5.1-11.7c-0.8,10.2-1.5,20.3-1.9,30.3c-0.4,10-0.8,19.3-1,27.8H0c0.3-6.9,0.7-14.3,1.2-22.1 c0.5-7.8,1-15.6,1.5-23.4C3.3,44.7,3.9,37.2,4.6,30c0.7-7.2,1.5-13.7,2.3-19.5H25.8z"></path> <path d="M128.5,29.8c5.6,0,10.2,0.6,13.9,1.9c3.7,1.3,6.7,3.1,8.9,5.4c2.2,2.4,3.8,5.2,4.7,8.6c0.9,3.4,1.4,7.1,1.4,11.2v39.2 c-2.7,0.6-6.4,1.3-11.2,2.1c-4.8,0.8-10.6,1.2-17.4,1.2c-4.3,0-8.2-0.4-11.7-1.1c-3.5-0.8-6.5-2-9-3.7c-2.5-1.7-4.5-4-5.8-6.8 c-1.3-2.8-2-6.2-2-10.2c0-3.9,0.8-7.2,2.3-9.9c1.6-2.7,3.6-4.8,6.3-6.4c2.6-1.6,5.6-2.8,9-3.5c3.4-0.7,6.9-1.1,10.5-1.1 c2.4,0,4.6,0.1,6.5,0.3c1.9,0.2,3.4,0.5,4.6,0.8v-1.8c0-3.2-1-5.8-2.9-7.7c-1.9-1.9-5.3-2.9-10.1-2.9c-3.2,0-6.4,0.2-9.5,0.7 c-3.1,0.5-5.8,1.1-8.1,2L106.4,33c1.1-0.3,2.5-0.7,4.1-1.1c1.6-0.4,3.4-0.7,5.4-1c1.9-0.3,4-0.5,6.1-0.8 C124.1,29.9,126.3,29.8,128.5,29.8 M130,84.9c1.9,0,3.6,0,5.3-0.1c1.7-0.1,3-0.2,4-0.4V70.1c-0.8-0.2-1.9-0.3-3.4-0.5 c-1.5-0.2-2.9-0.3-4.2-0.3c-1.8,0-3.4,0.1-5,0.3c-1.6,0.2-2.9,0.6-4.1,1.2c-1.2,0.6-2.1,1.4-2.8,2.4c-0.7,1-1,2.3-1,3.8 c0,2.9,1,5,3,6.1C123.8,84.3,126.5,84.9,130,84.9"></path> <path d="M201.2,48.2c-1.7-0.4-3.7-0.9-5.9-1.3c-2.3-0.5-4.7-0.7-7.3-0.7c-1.2,0-2.6,0.1-4.2,0.3c-1.6,0.2-2.9,0.4-3.7,0.7V98h-18.8 V35.1c3.4-1.2,7.3-2.3,11.9-3.3c4.6-1.1,9.7-1.6,15.3-1.6c1,0,2.2,0.1,3.7,0.2c1.4,0.1,2.9,0.3,4.3,0.5c1.4,0.2,2.9,0.5,4.3,0.8 c1.4,0.3,2.7,0.7,3.7,1.1L201.2,48.2z"></path> <path d="M226.7,55.4c1.9-2,3.8-4.1,5.7-6.3c2-2.2,3.9-4.3,5.7-6.5c1.9-2.1,3.6-4.2,5.2-6.1c1.6-1.9,3.1-3.6,4.2-5H270 c-4.5,5.1-8.8,10-13.1,14.7c-4.3,4.7-8.9,9.5-14,14.4c2.5,2.3,5.1,5,7.8,8.2c2.7,3.2,5.3,6.4,7.8,9.8c2.5,3.4,4.8,6.7,6.9,10.1 c2.1,3.4,3.9,6.5,5.3,9.2h-21.6c-1.3-2.2-2.9-4.6-4.6-7.3c-1.7-2.7-3.6-5.3-5.5-8c-1.9-2.7-4-5.2-6.1-7.7c-2.1-2.4-4.3-4.5-6.4-6.2 V98h-18.8V3l18.8-3V55.4z"></path> <path d="M263.3,65.3c0-5.9,0.9-11.1,2.7-15.5c1.8-4.4,4.2-8.1,7.1-11.1c2.9-2.9,6.3-5.2,10.2-6.7c3.8-1.5,7.8-2.3,11.8-2.3 c9.4,0,16.9,2.9,22.4,8.7c5.5,5.8,8.2,14.3,8.2,25.5c0,1.1,0,2.3-0.1,3.6c-0.1,1.3-0.2,2.5-0.3,3.5h-42.7c0.4,3.9,2.2,6.9,5.4,9.2 c3.2,2.3,7.5,3.4,12.9,3.4c3.5,0,6.8-0.3,10.2-0.9c3.3-0.6,6-1.4,8.1-2.3l2.5,15.3c-1,0.5-2.4,1-4,1.5c-1.7,0.5-3.6,0.9-5.6,1.3 c-2.1,0.4-4.3,0.7-6.6,0.9c-2.4,0.3-4.7,0.4-7.1,0.4c-6,0-11.2-0.9-15.6-2.7c-4.4-1.8-8.1-4.2-11-7.3c-2.9-3.1-5.1-6.7-6.4-10.9 C264,74.7,263.3,70.2,263.3,65.3 M307.5,58.1c-0.1-1.6-0.4-3.2-0.8-4.7c-0.5-1.5-1.2-2.9-2.1-4c-1-1.2-2.2-2.1-3.7-2.9 c-1.5-0.8-3.3-1.1-5.5-1.1c-2.1,0-3.9,0.4-5.4,1.1c-1.5,0.7-2.8,1.7-3.8,2.8c-1,1.2-1.8,2.5-2.3,4.1c-0.6,1.6-0.9,3.1-1.2,4.7H307.5 z"></path> <path d="M329.7,15l18.8-3v19.6h22.6v15.7h-22.6v23.4c0,4,0.7,7.1,2.1,9.5s4.2,3.5,8.4,3.5c2,0,4.1-0.2,6.3-0.6s4.1-0.9,5.9-1.6 l2.7,14.7c-2.3,0.9-4.8,1.7-7.6,2.4c-2.8,0.7-6.2,1-10.2,1c-5.1,0-9.4-0.7-12.8-2.1c-3.4-1.4-6.1-3.3-8.1-5.8c-2-2.5-3.4-5.5-4.2-9 c-0.8-3.5-1.2-7.5-1.2-11.7V15z"></path> <path d="M438.4,83c2.8,0,5.1-0.2,6.9-0.7c1.8-0.5,3.3-1.1,4.4-1.9c1.1-0.8,1.9-1.7,2.3-2.8c0.4-1.1,0.6-2.3,0.6-3.7 c0-2.9-1.3-5.2-4-7.1c-2.7-1.9-7.3-3.9-13.9-6.1c-2.9-1-5.7-2.2-8.6-3.5c-2.9-1.3-5.4-2.9-7.7-4.9c-2.3-2-4.1-4.4-5.6-7.2 c-1.4-2.8-2.1-6.3-2.1-10.3c0-4,0.8-7.7,2.3-10.9c1.5-3.2,3.7-6,6.4-8.3c2.8-2.3,6.1-4,10.1-5.2c4-1.2,8.4-1.8,13.4-1.8 c5.9,0,11,0.6,15.3,1.9c4.3,1.3,7.8,2.7,10.6,4.2L463,30.1c-2.4-1.3-5.2-2.4-8.1-3.3c-3-1-6.6-1.5-10.8-1.5c-4.7,0-8.1,0.7-10.2,2 c-2.1,1.3-3.1,3.3-3.1,6c0,1.6,0.4,2.9,1.1,4c0.8,1.1,1.8,2.1,3.2,3c1.4,0.9,3,1.7,4.8,2.4c1.8,0.7,3.8,1.5,6,2.2 c4.5,1.7,8.5,3.3,11.9,5c3.4,1.6,6.2,3.6,8.4,5.7c2.2,2.2,3.9,4.8,5,7.7c1.1,2.9,1.6,6.5,1.6,10.7c0,8.2-2.9,14.5-8.6,19 c-5.7,4.5-14.4,6.8-25.9,6.8c-3.9,0-7.4-0.2-10.5-0.7c-3.1-0.5-5.9-1-8.3-1.7c-2.4-0.7-4.5-1.4-6.2-2.1c-1.7-0.8-3.2-1.5-4.4-2.1 l5.6-15.7c2.6,1.4,5.8,2.7,9.7,3.9C428.1,82.4,432.8,83,438.4,83"></path> <path d="M476.3,15l18.8-3v19.6h22.6v15.7h-22.6v23.4c0,4,0.7,7.1,2.1,9.5s4.2,3.5,8.4,3.5c2,0,4.1-0.2,6.3-0.6 c2.1-0.4,4.1-0.9,5.9-1.6l2.7,14.7c-2.3,0.9-4.8,1.7-7.6,2.4c-2.8,0.7-6.2,1-10.2,1c-5.1,0-9.4-0.7-12.8-2.1 c-3.4-1.4-6.1-3.3-8.1-5.8c-2-2.5-3.4-5.5-4.2-9c-0.8-3.5-1.2-7.5-1.2-11.7V15z"></path> <path d="M563.8,48.2c-1.7-0.4-3.7-0.9-5.9-1.3c-2.3-0.5-4.7-0.7-7.3-0.7c-1.2,0-2.6,0.1-4.2,0.3c-1.6,0.2-2.9,0.4-3.7,0.7V98h-18.8 V35.1c3.4-1.2,7.3-2.3,11.9-3.3c4.6-1.1,9.7-1.6,15.3-1.6c1,0,2.2,0.1,3.7,0.2c1.4,0.1,2.9,0.3,4.3,0.5c1.4,0.2,2.9,0.5,4.3,0.8 c1.4,0.3,2.7,0.7,3.7,1.1L563.8,48.2z"></path> <path d="M564.7,65.3c0-5.9,0.9-11.1,2.7-15.5c1.8-4.4,4.2-8.1,7.1-11.1c2.9-2.9,6.3-5.2,10.2-6.7c3.8-1.5,7.8-2.3,11.8-2.3 c9.4,0,16.9,2.9,22.4,8.7c5.5,5.8,8.2,14.3,8.2,25.5c0,1.1,0,2.3-0.1,3.6c-0.1,1.3-0.2,2.5-0.3,3.5h-42.7c0.4,3.9,2.2,6.9,5.4,9.2 c3.2,2.3,7.5,3.4,12.9,3.4c3.5,0,6.8-0.3,10.2-0.9c3.3-0.6,6-1.4,8.1-2.3l2.5,15.3c-1,0.5-2.4,1-4,1.5c-1.7,0.5-3.6,0.9-5.6,1.3 c-2.1,0.4-4.3,0.7-6.6,0.9c-2.4,0.3-4.7,0.4-7.1,0.4c-6,0-11.2-0.9-15.6-2.7c-4.4-1.8-8.1-4.2-11-7.3c-2.9-3.1-5.1-6.7-6.4-10.9 C565.4,74.7,564.7,70.2,564.7,65.3 M609,58.1c-0.1-1.6-0.4-3.2-0.8-4.7c-0.5-1.5-1.2-2.9-2.1-4c-1-1.2-2.2-2.1-3.7-2.9 c-1.5-0.8-3.3-1.1-5.5-1.1c-2.1,0-3.9,0.4-5.4,1.1c-1.5,0.7-2.8,1.7-3.8,2.8c-1,1.2-1.8,2.5-2.3,4.1c-0.6,1.6-0.9,3.1-1.2,4.7H609z"></path> <path d="M631.1,65.3c0-5.9,0.9-11.1,2.7-15.5c1.8-4.4,4.2-8.1,7.1-11.1c2.9-2.9,6.3-5.2,10.2-6.7c3.8-1.5,7.8-2.3,11.8-2.3 c9.4,0,16.9,2.9,22.4,8.7c5.5,5.8,8.2,14.3,8.2,25.5c0,1.1,0,2.3-0.1,3.6c-0.1,1.3-0.2,2.5-0.3,3.5h-42.7c0.4,3.9,2.2,6.9,5.4,9.2 c3.2,2.3,7.5,3.4,12.9,3.4c3.5,0,6.8-0.3,10.2-0.9c3.3-0.6,6-1.4,8.1-2.3l2.5,15.3c-1,0.5-2.4,1-4,1.5c-1.7,0.5-3.6,0.9-5.6,1.3 c-2.1,0.4-4.3,0.7-6.6,0.9c-2.4,0.3-4.7,0.4-7.1,0.4c-6,0-11.2-0.9-15.6-2.7c-4.4-1.8-8.1-4.2-11-7.3c-2.9-3.1-5.1-6.7-6.4-10.9 C631.8,74.7,631.1,70.2,631.1,65.3 M675.3,58.1c-0.1-1.6-0.4-3.2-0.8-4.7c-0.5-1.5-1.2-2.9-2.1-4c-1-1.2-2.2-2.1-3.7-2.9 c-1.5-0.8-3.3-1.1-5.5-1.1c-2.1,0-3.9,0.4-5.4,1.1c-1.5,0.7-2.8,1.7-3.8,2.8c-1,1.2-1.8,2.5-2.3,4.1c-0.6,1.6-0.9,3.1-1.2,4.7H675.3 z"></path> <path d="M697.5,15l18.8-3v19.6h22.6v15.7h-22.6v23.4c0,4,0.7,7.1,2.1,9.5c1.4,2.4,4.2,3.5,8.4,3.5c2,0,4.1-0.2,6.3-0.6 c2.1-0.4,4.1-0.9,5.9-1.6l2.7,14.7c-2.3,0.9-4.8,1.7-7.6,2.4c-2.8,0.7-6.2,1-10.2,1c-5.1,0-9.4-0.7-12.8-2.1 c-3.4-1.4-6.1-3.3-8.1-5.8c-2-2.5-3.4-5.5-4.2-9c-0.8-3.5-1.2-7.5-1.2-11.7V15z"></path> <path d="M756.4,217.1l2.8-0.5v2.9h3.4v2.3h-3.4v3.5c0,0.6,0.1,1.1,0.3,1.4c0.2,0.4,0.6,0.5,1.3,0.5c0.3,0,0.6,0,0.9-0.1 c0.3-0.1,0.6-0.1,0.9-0.2l0.4,2.2c-0.3,0.1-0.7,0.3-1.1,0.4c-0.4,0.1-0.9,0.2-1.5,0.2c-0.8,0-1.4-0.1-1.9-0.3 c-0.5-0.2-0.9-0.5-1.2-0.9c-0.3-0.4-0.5-0.8-0.6-1.4c-0.1-0.5-0.2-1.1-0.2-1.8V217.1z"></path> <path d="M770.4,224.2c0-0.9-0.1-1.6-0.4-1.9c-0.2-0.4-0.6-0.6-1.2-0.6c-0.2,0-0.4,0-0.5,0c-0.2,0-0.4,0-0.5,0.1v7.7h-2.8v-9.6 c0.2-0.1,0.5-0.1,0.8-0.2c0.3-0.1,0.7-0.1,1-0.2c0.4-0.1,0.7-0.1,1.1-0.1c0.4,0,0.8,0,1.1,0c0.7,0,1.3,0.1,1.8,0.3s0.8,0.4,1.1,0.7 c0.4-0.3,0.9-0.5,1.4-0.7s1-0.2,1.4-0.2c0.8,0,1.4,0.1,2,0.3c0.5,0.2,0.9,0.5,1.2,0.9c0.3,0.4,0.5,0.9,0.6,1.4 c0.1,0.6,0.2,1.2,0.2,1.9v5.6h-2.8v-5.3c0-0.9-0.1-1.6-0.4-1.9c-0.2-0.4-0.6-0.6-1.2-0.6c-0.2,0-0.4,0-0.6,0.1 c-0.3,0.1-0.5,0.2-0.7,0.3c0.1,0.3,0.1,0.6,0.2,0.9c0,0.3,0,0.7,0,1v5.4h-2.8V224.2z"></path> <path d="M438.4,231.6c-5.6,0-10.9-1-15.7-3c-4.8-2-9.1-5-12.6-8.8c-3.6-3.9-6.4-8.7-8.5-14.3c-2.1-5.7-3.1-12.2-3.1-19.5 c0-7.3,1.1-13.8,3.3-19.5c2.2-5.7,5.2-10.5,8.9-14.3c3.7-3.9,8-6.8,12.9-8.8c4.9-2,10-3,15.3-3c3.3,0,6.3,0.2,9,0.6 c2.7,0.4,5.1,0.9,7.1,1.6c2,0.6,3.7,1.3,5.2,1.9c1.4,0.6,2.5,1.2,3.3,1.7l-2.8,7.5c-2.1-1.3-4.8-2.5-8-3.7 c-3.2-1.2-7.3-1.8-12.1-1.8c-5.5,0-10.3,0.9-14.3,2.8c-4.1,1.9-7.5,4.5-10.3,7.8c-2.8,3.4-4.9,7.4-6.3,12c-1.4,4.6-2.1,9.8-2.1,15.4 c0,5.8,0.7,11.1,2.1,15.7c1.4,4.7,3.4,8.7,6.1,11.9c2.7,3.3,6,5.8,9.9,7.6c3.9,1.8,8.4,2.7,13.5,2.7c5.6,0,10.2-0.5,14-1.6 c3.7-1.1,6.6-2.1,8.5-3.2l2.4,7.3c-0.6,0.4-1.6,0.9-3,1.5c-1.4,0.5-3.2,1.1-5.4,1.7c-2.2,0.6-4.7,1.1-7.6,1.5 C445.1,231.4,441.9,231.6,438.4,231.6"></path> <path d="M491.9,162.9c4.3,0,7.9,0.6,10.9,1.8c3,1.2,5.4,2.9,7.3,5.1c1.9,2.1,3.2,4.7,4,7.6c0.8,2.9,1.3,6.1,1.3,9.6v41.2 c-0.8,0.3-2.1,0.5-3.7,0.8c-1.6,0.3-3.5,0.6-5.6,0.9c-2.1,0.3-4.4,0.6-7,0.8c-2.6,0.2-5.2,0.3-7.9,0.3c-3.5,0-6.6-0.4-9.5-1.1 c-2.9-0.8-5.4-2-7.6-3.6c-2.1-1.6-3.8-3.7-5.1-6.3c-1.2-2.6-1.8-5.7-1.8-9.4c0-3.5,0.7-6.6,2-9.1c1.3-2.5,3.2-4.6,5.7-6.3 c2.4-1.6,5.3-2.8,8.7-3.6c3.4-0.8,7-1.1,11-1.1c1.2,0,2.4,0.1,3.7,0.2c1.3,0.1,2.6,0.3,3.8,0.5c1.2,0.2,2.3,0.4,3.2,0.6 c0.9,0.2,1.5,0.4,1.8,0.6v-4c0-2.3-0.2-4.5-0.5-6.6c-0.3-2.1-1.1-4.1-2.2-5.8c-1.1-1.7-2.7-3.1-4.8-4.2c-2.1-1.1-4.8-1.6-8.1-1.6 c-4.8,0-8.4,0.3-10.7,1c-2.4,0.7-4.1,1.2-5.2,1.6l-1.1-7.2c1.4-0.7,3.6-1.3,6.6-1.9C484.1,163.2,487.7,162.9,491.9,162.9 M492.7,223.8c3.2,0,6-0.1,8.4-0.3c2.4-0.2,4.4-0.5,6.1-0.8v-23c-0.9-0.4-2.4-0.9-4.4-1.3c-2-0.5-4.8-0.7-8.3-0.7 c-2,0-4.1,0.1-6.3,0.4c-2.2,0.3-4.2,0.9-6.1,1.9c-1.9,1-3.4,2.3-4.5,4c-1.2,1.7-1.8,3.9-1.8,6.7c0,2.4,0.4,4.5,1.2,6.2 c0.8,1.7,1.9,3,3.4,4c1.5,1,3.2,1.7,5.3,2.2C487.7,223.6,490.1,223.8,492.7,223.8"></path> <path d="M538.3,253.1h-8.2v-86.4c2.4-0.8,5.6-1.6,9.3-2.4s8.6-1.1,14.4-1.1c4.8,0,9.2,0.8,13.1,2.3c3.9,1.6,7.3,3.8,10.1,6.8 c2.8,2.9,5,6.5,6.6,10.7c1.6,4.2,2.3,9,2.3,14.3c0,5-0.7,9.5-2,13.7c-1.3,4.2-3.2,7.7-5.7,10.7c-2.5,3-5.6,5.3-9.3,7 c-3.7,1.7-7.9,2.5-12.6,2.5c-4.3,0-8-0.6-11.2-1.8c-3.2-1.2-5.5-2.4-6.9-3.5V253.1z M538.3,218c0.8,0.6,1.7,1.2,2.8,1.9 c1.1,0.7,2.5,1.3,4,1.9c1.5,0.6,3.2,1.1,4.9,1.5c1.8,0.4,3.6,0.6,5.6,0.6c4,0,7.4-0.7,10.2-2.1c2.7-1.4,4.9-3.3,6.6-5.7 c1.7-2.4,2.9-5.2,3.7-8.5c0.8-3.2,1.1-6.7,1.1-10.3c0-8.6-2.1-15.2-6.4-19.8c-4.3-4.6-10-6.9-17.1-6.9c-4,0-7.3,0.2-9.8,0.6 c-2.5,0.4-4.4,0.8-5.6,1.2V218z"></path> <path d="M607.5,144.7c0,1.9-0.6,3.5-1.8,4.6c-1.2,1.1-2.6,1.7-4.3,1.7c-1.7,0-3.1-0.6-4.3-1.7c-1.2-1.1-1.8-2.7-1.8-4.6 c0-1.9,0.6-3.5,1.8-4.6c1.2-1.1,2.6-1.7,4.3-1.7c1.7,0,3.1,0.6,4.3,1.7C606.9,141.3,607.5,142.8,607.5,144.7 M605.6,229.7h-8.2 v-65.3h8.2V229.7z"></path> <path d="M657.5,227.1c-1.2,0.8-3.2,1.6-6.2,2.6c-3,1-6.2,1.4-9.6,1.4c-4,0-7.4-0.5-10.2-1.6c-2.7-1.1-4.9-2.7-6.6-4.8 c-1.7-2.1-2.8-4.8-3.5-8c-0.7-3.2-1-7-1-11.4v-34h-3.4v-7h3.4v-19.2l8.2-1.5v20.7h26v7h-26v34.7c0,3.7,0.3,6.7,1,9 c0.6,2.3,1.5,4.1,2.7,5.4c1.2,1.3,2.6,2.1,4.3,2.5c1.7,0.4,3.5,0.6,5.6,0.6c3.5,0,6.2-0.4,8.3-1.2c2.1-0.8,3.8-1.5,4.9-2.2 L657.5,227.1z"></path> <path d="M683.4,162.9c4.3,0,7.9,0.6,10.9,1.8c3,1.2,5.4,2.9,7.3,5.1c1.9,2.1,3.2,4.7,4,7.6c0.8,2.9,1.3,6.1,1.3,9.6v41.2 c-0.8,0.3-2.1,0.5-3.7,0.8c-1.6,0.3-3.5,0.6-5.6,0.9c-2.1,0.3-4.4,0.6-7,0.8c-2.6,0.2-5.2,0.3-7.9,0.3c-3.5,0-6.6-0.4-9.5-1.1 c-2.9-0.8-5.4-2-7.6-3.6c-2.1-1.6-3.8-3.7-5.1-6.3c-1.2-2.6-1.8-5.7-1.8-9.4c0-3.5,0.7-6.6,2-9.1c1.3-2.5,3.2-4.6,5.7-6.3 c2.4-1.6,5.3-2.8,8.7-3.6c3.4-0.8,7-1.1,11-1.1c1.2,0,2.4,0.1,3.7,0.2c1.3,0.1,2.6,0.3,3.8,0.5c1.2,0.2,2.3,0.4,3.2,0.6 c0.9,0.2,1.5,0.4,1.8,0.6v-4c0-2.3-0.2-4.5-0.5-6.6c-0.3-2.1-1.1-4.1-2.2-5.8c-1.1-1.7-2.7-3.1-4.8-4.2c-2.1-1.1-4.8-1.6-8.1-1.6 c-4.8,0-8.4,0.3-10.7,1c-2.4,0.7-4.1,1.2-5.2,1.6l-1.1-7.2c1.4-0.7,3.6-1.3,6.6-1.9C675.6,163.2,679.2,162.9,683.4,162.9 M684.1,223.8c3.2,0,6-0.1,8.4-0.3c2.4-0.2,4.4-0.5,6.1-0.8v-23c-0.9-0.4-2.4-0.9-4.4-1.3c-2-0.5-4.8-0.7-8.3-0.7 c-2,0-4.1,0.1-6.3,0.4c-2.2,0.3-4.2,0.9-6.1,1.9c-1.9,1-3.4,2.3-4.5,4c-1.2,1.7-1.8,3.9-1.8,6.7c0,2.4,0.4,4.5,1.2,6.2 c0.8,1.7,1.9,3,3.4,4c1.5,1,3.2,1.7,5.3,2.2C679.2,223.6,681.5,223.8,684.1,223.8"></path> <path d="M736.1,230.9c-2.8-0.1-5.2-0.4-7.3-1.1c-2.1-0.6-3.8-1.6-5.2-2.9c-1.4-1.3-2.4-3-3.2-5.1c-0.7-2.1-1.1-4.7-1.1-7.8v-80.8 l8.2-1.5v82.1c0,2,0.2,3.6,0.6,4.9c0.4,1.2,0.9,2.2,1.7,2.9c0.8,0.7,1.7,1.2,3,1.6c1.2,0.3,2.7,0.6,4.4,0.9L736.1,230.9z"></path> </svg> 